# xmcd
#
# Track frame offsets:
# 150
# 17713
# 36467
# 51808
# 71612
# 88273
# 105532
# 124286
# 142591
# 163002
# 175974
# 196229
# 214842
#
# Disc length: 3012 seconds
#
#
# Revision: 0
# Processed by: cddbd v1.5.2PL0 Copyright (c) Steve Scherf et al.
# Submitted via: FreeRIP 2.944 
#
DISCID=b80bc20d
DTITLE=Lee Ann Womack - There's more where that come from
DYEAR=1900
DGENRE=Country
TTITLE0=Theres more where tath came from
TTITLE1=One's a couple
TTITLE2=I may hate myself in the end
TTITLE3=The last time
TTITLE4=He Oughte know that by now
TTITLE5=Twentys years ant two
TTITLE6=Happiness-Ego
TTITLE7=When you get to me
TTITLE8=Painless
TTITLE9=What i miss about Heaven
TTITLE10=Waiting for the sun to shine
TTITLE11=Stubborn (Psalm 151)
TTITLE12=Just Someone i used
EXTD=
EXTT0=
EXTT1=
EXTT2=
EXTT3=
EXTT4=
EXTT5=
EXTT6=
EXTT7=
EXTT8=
EXTT9=
EXTT10=
EXTT11=
EXTT12=
PLAYORDER=
